<?xml version="1.0" encoding="UTF-8"?>
<svg id="_Слой_2" data-name="Слой 2" xmlns="http://www.w3.org/2000/svg" viewBox="0 0 210.24 263.86">
  <defs>
    <style>
      .cls-1 {
        fill: #ffdb8e;
      }
    </style>
  </defs>
  <g id="Layer_1" data-name="Layer 1">
    <g>
      <path class="cls-1" d="M25.73,228.12c-.16,0-.32,0-.49-.02-1.82-.14-3.48-.97-4.68-2.36-1.19-1.38-1.78-3.15-1.64-4.97L33.49,24.2c.27-3.53,3.27-6.31,6.81-6.33H169.94c3.55,.01,6.54,2.8,6.82,6.34l14.56,196.56c.01,.17,.02,.34,.02,.5,0,1.83-.71,3.55-2,4.84-1.29,1.29-3.01,2-4.84,2.01H25.73ZM40.29,22.62c-1.1,0-2.01,.85-2.09,1.94l-14.56,196.57c-.04,.58,.16,1.15,.55,1.58,.4,.43,.95,.67,1.53,.67H184.5c.58,0,1.14-.24,1.53-.67,.4-.43,.6-1,.55-1.58l-14.56-196.57c-.08-1.09-.99-1.94-2.09-1.94H40.29Z"/>
      <path class="cls-1" d="M176.59,263.86c-3.77,0-6.84-3.07-6.84-6.84v-8.94c0-1.16-.94-2.09-2.09-2.09H42.57c-1.16,0-2.09,.94-2.09,2.09v8.94c0,3.77-3.07,6.84-6.84,6.84H15.76c-3.77,0-6.84-3.07-6.84-6.84v-9.77c0-.89-.57-1.69-1.41-1.98-4.8-1.66-7.88-6.35-7.48-11.42L16.57,10.47C17.02,4.63,21.97,.03,27.84,0H182.4c5.86,.02,10.82,4.62,11.28,10.48l16.53,223.37c.39,5.07-2.69,9.77-7.49,11.42-.84,.29-1.41,1.09-1.41,1.98v9.77c0,3.77-3.07,6.84-6.84,6.84h-17.87Zm0-17.87c-1.16,0-2.09,.94-2.09,2.09v8.94c0,1.16,.94,2.09,2.09,2.09h17.87c1.16,0,2.09-.94,2.09-2.09v-8.94c0-1.16-.94-2.09-2.09-2.09h-17.87Zm-160.83,0c-1.16,0-2.09,.94-2.09,2.09v8.94c0,1.16,.94,2.09,2.09,2.09h17.87c1.16,0,2.09-.94,2.09-2.09v-8.94c0-1.16-.94-2.09-2.09-2.09H15.76ZM27.83,4.75c-3.41,.01-6.27,2.68-6.52,6.08L4.74,234.2c-.01,.17-.02,.34-.02,.5,0,3.6,2.95,6.54,6.56,6.54H198.93c.18,0,.33,0,.49-.02,3.61-.26,6.33-3.41,6.07-7.02L188.96,10.83c-.25-3.41-3.12-6.08-6.54-6.08H27.83Z"/>
      <path class="cls-1" d="M60.44,49.42c-1.31,0-2.37-1.06-2.37-2.37s1.06-2.37,2.37-2.37h62.55c1.31,0,2.37,1.06,2.37,2.37s-1.06,2.37-2.37,2.37H60.44Z"/>
      <path class="cls-1" d="M60.44,76.23c-1.31,0-2.37-1.06-2.37-2.37s1.06-2.37,2.37-2.37h31.27c1.31,0,2.37,1.06,2.37,2.37s-1.06,2.37-2.37,2.37h-31.27Z"/>
      <path class="cls-1" d="M51.5,111.97c-1.31,0-2.37-1.06-2.37-2.37s1.06-2.37,2.37-2.37H122.98c1.31,0,2.37,1.06,2.37,2.37s-1.06,2.37-2.37,2.37H51.5Z"/>
      <path class="cls-1" d="M51.5,138.77c-1.31,0-2.37-1.06-2.37-2.37s1.06-2.37,2.37-2.37h40.21c1.31,0,2.37,1.06,2.37,2.37s-1.06,2.37-2.37,2.37H51.5Z"/>
      <path class="cls-1" d="M42.57,174.51c-1.31,0-2.37-1.06-2.37-2.37s1.06-2.37,2.37-2.37H122.98c1.31,0,2.37,1.06,2.37,2.37s-1.06,2.37-2.37,2.37H42.57Z"/>
      <path class="cls-1" d="M42.57,201.32c-1.31,0-2.37-1.06-2.37-2.37s1.06-2.37,2.37-2.37h49.14c1.31,0,2.37,1.06,2.37,2.37s-1.06,2.37-2.37,2.37H42.57Z"/>
    </g>
  </g>
</svg>
